<svg id="Layer_1" data-name="Layer 1" xmlns="http://www.w3.org/2000/svg" viewBox="0 0 303.36 410.75"><defs><style>.cls-1{fill:#e92e2f;stroke:#e92e2f;}.cls-1,.cls-2{stroke-miterlimit:10;stroke-width:0.09px;}.cls-2{fill:#0774bb;stroke:#0774bb;}</style></defs><title>java</title><path class="cls-1" d="M214.58,22.53c9.39,10.7,12.5,26,9.79,39.8-2.9,15.5-11.5,29.2-21.59,41a199.61,199.61,0,0,1-27.1,25.7c-11.3,9.1-22.4,18.9-29.5,31.7a41.39,41.39,0,0,0-3.3,34.5c6.7,19.4,22.3,33.8,30.8,52.1-9.4-8.3-18.6-16.9-27.2-26-9-9.6-17.5-19.8-23.1-31.8-3.8-8.4-5.5-18.2-2.6-27.1,2.9-9.1,9.4-16.4,15.9-23.2,18.1-18.1,40.4-31.4,58.1-49.8,9.8-10.1,17.9-22.2,20.69-36.1,2.31-10.2,1.21-20.7-.89-30.8Z" transform="translate(-21.58 -22.37)"/><path class="cls-1" d="M199.78,136.43c19.4-14.3,42.09-23.4,65.09-30-18.19,11.6-37.19,22.2-52.9,37.1-5.69,5.5-11.1,11.8-13.6,19.5-1.9,5.7-1.09,12,1.21,17.4,4.2,9.6,11.29,17.4,16.7,26.2a27.76,27.76,0,0,1,1.9,25.2c-5.31,11.9-15.71,20.6-26.5,27.5-1.4.8-2.6,2.3-4.31,2.5,7.21-6.5,12.81-15.7,12.6-25.6-.19-7.4-4.29-13.9-9.1-19.2-9.9-11.8-18.19-26.8-16.49-42.7s13.09-28.7,25.4-37.9Z" transform="translate(-21.58 -22.37)"/><path class="cls-2" d="M268.58,252c4.2-5.1,10.89-6.4,17-7.2,10.6-1.4,21.89,1.3,29.89,8.6a27.14,27.14,0,0,1,8.91,24c-1.5,10.3-8.41,18.9-16.2,25.4-14.1,11.3-31.5,17.9-48.9,22.31a15.36,15.36,0,0,1,3.4-2.91c13.19-7.1,26.29-15.4,36-27,5.9-7.2,10.5-16.6,8.6-26.1-2-11-12.7-19-23.6-19.6-5.21-.5-10.1,1.5-15.1,2.5Z" transform="translate(-21.58 -22.37)"/><path class="cls-2" d="M67.58,261.13c18.4-7.9,38.4-13,58.5-12.7-11.7,3.4-23.7,6.3-34.7,11.5-2.6,1.4-5.6,2.7-7.1,5.4-.8,2.1,1.4,3.5,3,4.2,6.8,2.8,14.3,3.2,21.6,3.9,25.6,1.7,51.3.7,76.8-.9,25.19-1.6,50.19-5,75.1-9a138.62,138.62,0,0,0-16.2,8.5c-2.61,1.8-5.8,2.3-8.71,3-30.59,6.8-62,8.9-93.19,9.4-12.1.1-24.1-.1-36.1-.9-13.4-.9-26.9-1.9-40-5.4-3.8-1.1-7.8-2.3-10.8-5a3.5,3.5,0,0,1-.2-5c3.3-3.4,7.9-5,12-7Z" transform="translate(-21.58 -22.37)"/><path class="cls-2" d="M91.18,303.83c5.2-4.1,11.4-6.4,17.6-8.6-2,2.4-4.8,4.7-5,8-.1,2.1,1.6,3.7,3.3,4.7,3.3,1.7,7,2.3,10.7,2.8,19.2,2,38.6,3.1,58,1.8,17.69-.9,35.3-3.8,52.8-6.9,4.79,4.5,10.5,7.6,16.5,10.3a316.15,316.15,0,0,1-64.61,11.5c-20.59,1.4-41.49,1.3-62-2-8.1-1.5-16.4-3.2-23.8-7-3-1.6-6.4-3.7-7.3-7.2-.6-3,1.6-5.7,3.8-7.4Z" transform="translate(-21.58 -22.37)"/><path class="cls-2" d="M102.78,347.43c4.6-3.7,10.3-5.6,15.9-7.2-1.8,1.7-5,3.8-3.6,6.7,2.7,3.5,7.7,3.9,11.7,4.8,16.9,2.1,34,3.5,50.9,2.2,12.79-.79,25.4-3.1,37.9-5.29a189.53,189.53,0,0,0,22.39,11c-11.79,5.29-24.5,8.69-37.19,11.09a197.24,197.24,0,0,1-65,.91c-9.5-1.71-19.2-3.91-27.8-8.61-3.3-1.89-6.8-4.1-8.2-7.8-1.1-2.9.7-6,3-7.8Z" transform="translate(-21.58 -22.37)"/><path class="cls-2" d="M47.28,375.73c9.2-3.09,18.7-5.59,28.4-5.9,3.9-.1,7.9.1,11.3,2.1a85.78,85.78,0,0,0-33.6,8.9c-2.3,1.31-4.9,2.81-5.8,5.5,0,3.1,3.5,4.1,5.8,5.1,14.5,5.4,30,7.1,45.2,8.71,45.3,3.79,90.89,2.79,136.2-1.31,17.09-1.9,34.3-3.8,50.9-8.5,5.29-1.8,11.29-3.6,14.79-8.3,2.11-2.8.71-6.3-1.39-8.7,3.39,1.9,8.2,4.31,7.5,8.9-1.3,4.8-6.21,7.3-10.21,9.6-12.79,6.5-26.9,9.81-40.9,12.7-40.69,8-82.39,9.8-123.79,8.61a695.71,695.71,0,0,1-93.2-9.41c-5.5-1.3-11.7-2.4-15.7-6.7-2.6-3-.3-7.2,2.2-9.39,6.3-5.81,14.4-9,22.3-11.91Z" transform="translate(-21.58 -22.37)"/><path class="cls-2" d="M296.47,409.93c10.11-3.5,20.91-7.2,28.41-15.2-1.3,8.7-8.8,14.7-16.2,18.6-14.21,7.4-30.1,10.81-45.9,13.6-33.41,5.3-67.31,6.6-101.2,6-23.1-.7-46.4-1.6-69.1-6.4-5.4-1.5-11.2-2.5-15.9-5.7,20.2,3.4,40.7,4.81,61.2,5.6a654.46,654.46,0,0,0,101-4.5c19.4-2.7,38.9-6,57.69-12Z" transform="translate(-21.58 -22.37)"/></svg>