<svg id="Layer_1" data-name="Layer 1" xmlns="http://www.w3.org/2000/svg" viewBox="0 0 2259.27 2489.68"><defs><style>.cls-1{fill:#8cc84b;}</style></defs><title>NodeJS</title><path class="cls-1" d="M1031.6,32.36c61.73-35.34,142.14-35.5,203.82,0q465.45,263,930.95,525.84c58.35,32.87,97.39,97.81,96.79,165v1054.9c.44,70-42.45,136.52-104,168.64q-463.92,261.55-927.63,523.33c-63,36-145,33.25-206.07-5.73q-139.1-80.62-278.34-160.94c-19-11.29-40.31-20.28-53.69-38.66,11.83-15.94,33-17.93,50.16-24.89,38.7-12.3,74.25-32.06,109.81-51.23,9-6.15,20-3.8,28.59,1.71,79.29,45.46,157.87,92.24,237.43,137.27,17,9.8,34.16-3.21,48.66-11.3q455.25-257.29,910.83-514c11.24-5.41,17.46-17.35,16.54-29.66q.33-522,.11-1044c1.29-14-6.8-26.82-19.44-32.54q-462.31-260.36-924.42-521a32.11,32.11,0,0,0-36.3-.05Q653.16,435.54,191.07,696.27c-12.59,5.73-21,18.36-19.54,32.39q.08,522,0,1044.08A29.5,29.5,0,0,0,188.29,1802Q311.64,1872,435.15,1941.44c46.35,25,103.27,39.77,154.34,20.66,45.08-16.17,76.67-62.16,75.81-110,.42-345.95-.21-692,.32-1037.87-1.13-15.36,13.44-28.05,28.37-26.6,39.51-.27,79.08-.53,118.59.11,16.49-.38,27.84,16.16,25.8,31.63-.15,348.15.43,696.31-.26,1044.46.11,92.78-38,193.74-123.84,239.14-105.73,54.77-236.41,43.16-340.87-9.36-90.42-45.14-176.72-98.4-265.54-146.75-61.72-31.95-104.4-98.71-104-168.68V723.25C3.26,654.62,43.84,588.5,104,556.11Q567.86,294.35,1031.6,32.36Z" transform="translate(-3.9 -5.8)"/><path class="cls-1" d="M1301.37,763.09c134.87-8.68,279.25-5.14,400.61,61.3,94,50.91,146.06,157.77,147.72,262.16-2.62,14.08-17.34,21.85-30.79,20.89-39.13-.06-78.27.53-117.4-.27-16.59.64-26.24-14.67-28.33-29.34-11.24-49.95-38.48-99.42-85.49-123.51-72.17-36.13-155.85-34.32-234.55-33.56-57.45,3-119.22,8-167.89,41.81-37.37,25.59-48.72,77.25-35.38,118.85,12.57,29.87,47.05,39.51,75.27,48.4,162.53,42.51,334.77,38.28,494.2,94.22,66,22.8,130.57,67.14,153.17,136.25,29.55,92.62,16.6,203.34-49.3,277.7-53.45,61.19-131.28,94.49-208.91,112.58-103.28,23-210.45,23.62-315.33,13.39-98.62-11.24-201.25-37.15-277.38-104.34-65.1-56.53-96.9-144.61-93.75-229.62.76-14.35,15-24.36,28.8-23.19,39.41-.31,78.82-.42,118.22.06,15.74-1.13,27.41,12.47,28.22,27.31,7.27,47.59,25.15,97.54,66.65,125.75,80.09,51.67,180.58,48.13,272.28,49.58,76-3.37,161.26-4.39,223.26-54.61,32.71-28.64,42.4-76.55,33.56-117.78-9.58-34.8-46-51-77.25-61.62-160.45-50.76-334.61-32.34-493.51-89.74-64.51-22.8-126.89-65.9-151.67-132.17-34.58-93.8-18.74-209.81,54.07-281.66,71-71.47,173.47-99,270.9-108.85Z" transform="translate(-3.9 -5.8)"/></svg>