<svg width="693" height="397" viewBox="0 0 693 397" fill="none" xmlns="http://www.w3.org/2000/svg">
<g clip-path="url(#clip0)">
<path d="M425.457 35.3905H267.186V32.1381H195.42V35.3905H36.4965C35.0906 35.3905 33.6984 35.6666 32.3995 36.203C31.1006 36.7394 29.9204 37.5256 28.9263 38.5168C27.9322 39.508 27.1436 40.6847 26.6056 41.9797C26.0676 43.2747 25.7906 44.6628 25.7906 46.0645V262.142C25.7906 264.973 26.9186 267.688 28.9263 269.69C30.934 271.692 33.6571 272.816 36.4965 272.816H425.457C428.296 272.816 431.019 271.692 433.027 269.69C435.035 267.688 436.162 264.973 436.162 262.142V46.0645C436.162 44.6628 435.886 43.2747 435.348 41.9797C434.81 40.6847 434.021 39.508 433.027 38.5168C432.033 37.5256 430.853 36.7394 429.554 36.203C428.255 35.6666 426.863 35.3905 425.457 35.3905Z" fill="#3F3D56"/>
<path d="M421.809 54.2545H40.1439V268.913H421.809V54.2545Z" fill="#2260FF" fill-opacity="0.55"/>
<path d="M230.65 48.4001C232.812 48.4001 234.565 46.6528 234.565 44.4972C234.565 42.3417 232.812 40.5944 230.65 40.5944C228.488 40.5944 226.736 42.3417 226.736 44.4972C226.736 46.6528 228.488 48.4001 230.65 48.4001Z" fill="#2260FF" fill-opacity="0.55"/>
<path opacity="0.1" d="M312.66 268.913H40.144V54.2546L312.66 268.913Z" fill="black"/>
<path d="M99.8631 252.85C120.125 252.85 136.55 236.474 136.55 216.272C136.55 196.071 120.125 179.695 99.8631 179.695C79.6015 179.695 63.1763 196.071 63.1763 216.272C63.1763 236.474 79.6015 252.85 99.8631 252.85Z" fill="#F2F2F2"/>
<path d="M355.355 170.022H319.703V177.449H355.355V170.022Z" fill="#3F3D56"/>
<path d="M398.457 112.193H276.602V115.377H398.457V112.193Z" fill="#3F3D56"/>
<path d="M398.457 122.274H276.602V125.457H398.457V122.274Z" fill="#3F3D56"/>
<path d="M398.457 132.354H276.602V135.537H398.457V132.354Z" fill="#3F3D56"/>
<path d="M398.457 142.434H276.602V145.617H398.457V142.434Z" fill="#3F3D56"/>
<path d="M398.457 152.514H276.602V155.697H398.457V152.514Z" fill="#3F3D56"/>
<path d="M398.456 58.6094H383.557V73.4644H398.456V58.6094Z" fill="#F2F2F2"/>
<path d="M405.374 80.3613H387.282V62.3231H405.374V80.3613ZM388.069 79.5771H404.587V63.1074H388.069V79.5771Z" fill="#3F3D56"/>
<path d="M446.879 265.01H409.631V262.335C409.631 262.265 409.617 262.196 409.59 262.132C409.564 262.067 409.524 262.009 409.475 261.96C409.426 261.91 409.367 261.871 409.302 261.845C409.238 261.818 409.169 261.804 409.099 261.804H396.328C396.258 261.804 396.189 261.818 396.124 261.845C396.06 261.871 396.001 261.91 395.952 261.96C395.902 262.009 395.863 262.067 395.836 262.132C395.81 262.196 395.796 262.265 395.796 262.335V265.01H387.814V262.335C387.814 262.265 387.8 262.196 387.774 262.132C387.747 262.067 387.708 262.009 387.658 261.96C387.609 261.91 387.55 261.871 387.486 261.845C387.421 261.818 387.352 261.804 387.282 261.804H374.511C374.441 261.804 374.372 261.818 374.308 261.845C374.243 261.871 374.184 261.91 374.135 261.96C374.085 262.009 374.046 262.067 374.02 262.132C373.993 262.196 373.979 262.265 373.979 262.335V265.01H365.997V262.335C365.997 262.265 365.984 262.196 365.957 262.132C365.93 262.067 365.891 262.009 365.841 261.96C365.792 261.91 365.733 261.871 365.669 261.845C365.604 261.818 365.535 261.804 365.465 261.804H352.694C352.625 261.804 352.555 261.818 352.491 261.845C352.426 261.871 352.368 261.91 352.318 261.96C352.269 262.009 352.23 262.067 352.203 262.132C352.176 262.196 352.162 262.265 352.162 262.335V265.01H344.181V262.335C344.181 262.265 344.167 262.196 344.14 262.132C344.113 262.067 344.074 262.009 344.025 261.96C343.975 261.91 343.917 261.871 343.852 261.845C343.788 261.818 343.718 261.804 343.648 261.804H330.878C330.808 261.804 330.739 261.818 330.674 261.845C330.609 261.871 330.551 261.91 330.501 261.96C330.452 262.009 330.413 262.067 330.386 262.132C330.359 262.196 330.346 262.265 330.346 262.335V265.01H322.364V262.335C322.364 262.265 322.35 262.196 322.323 262.132C322.297 262.067 322.257 262.009 322.208 261.96C322.159 261.91 322.1 261.871 322.035 261.845C321.971 261.818 321.902 261.804 321.832 261.804H309.061C308.991 261.804 308.922 261.818 308.857 261.845C308.793 261.871 308.734 261.91 308.685 261.96C308.635 262.009 308.596 262.067 308.569 262.132C308.543 262.196 308.529 262.265 308.529 262.335V265.01H300.547V262.335C300.547 262.265 300.533 262.196 300.507 262.132C300.48 262.067 300.441 262.009 300.391 261.96C300.342 261.91 300.283 261.871 300.219 261.845C300.154 261.818 300.085 261.804 300.015 261.804H287.244C287.174 261.804 287.105 261.818 287.041 261.845C286.976 261.871 286.917 261.91 286.868 261.96C286.819 262.009 286.779 262.067 286.753 262.132C286.726 262.196 286.712 262.265 286.712 262.335V265.01H278.73V262.335C278.73 262.265 278.717 262.196 278.69 262.132C278.663 262.067 278.624 262.009 278.575 261.96C278.525 261.91 278.466 261.871 278.402 261.845C278.337 261.818 278.268 261.804 278.198 261.804H178.161C178.091 261.804 178.022 261.818 177.957 261.845C177.892 261.871 177.834 261.91 177.784 261.96C177.735 262.009 177.696 262.067 177.669 262.132C177.642 262.196 177.629 262.265 177.629 262.335V265.01H169.647V262.335C169.647 262.265 169.633 262.196 169.606 262.132C169.58 262.067 169.54 262.009 169.491 261.96C169.442 261.91 169.383 261.871 169.318 261.845C169.254 261.818 169.185 261.804 169.115 261.804H156.344C156.274 261.804 156.205 261.818 156.14 261.845C156.076 261.871 156.017 261.91 155.968 261.96C155.918 262.009 155.879 262.067 155.852 262.132C155.826 262.196 155.812 262.265 155.812 262.335V265.01H147.83V262.335C147.83 262.265 147.816 262.196 147.79 262.132C147.763 262.067 147.724 262.009 147.674 261.96C147.625 261.91 147.566 261.871 147.502 261.845C147.437 261.818 147.368 261.804 147.298 261.804H134.527C134.457 261.804 134.388 261.818 134.324 261.845C134.259 261.871 134.2 261.91 134.151 261.96C134.102 262.009 134.062 262.067 134.036 262.132C134.009 262.196 133.995 262.265 133.995 262.335V265.01H126.013V262.335C126.013 262.265 126 262.196 125.973 262.132C125.946 262.067 125.907 262.009 125.857 261.96C125.808 261.91 125.749 261.871 125.685 261.845C125.62 261.818 125.551 261.804 125.481 261.804H112.71C112.641 261.804 112.571 261.818 112.507 261.845C112.442 261.871 112.384 261.91 112.334 261.96C112.285 262.009 112.246 262.067 112.219 262.132C112.192 262.196 112.178 262.265 112.178 262.335V265.01H104.197V262.335C104.197 262.265 104.183 262.196 104.156 262.132C104.129 262.067 104.09 262.009 104.041 261.96C103.991 261.91 103.933 261.871 103.868 261.845C103.804 261.818 103.734 261.804 103.665 261.804H90.8937C90.8239 261.804 90.7547 261.818 90.6901 261.845C90.6255 261.871 90.5669 261.91 90.5175 261.96C90.468 262.009 90.4289 262.067 90.4021 262.132C90.3754 262.196 90.3616 262.265 90.3616 262.335V265.01H82.3799V262.335C82.3799 262.265 82.3661 262.196 82.3394 262.132C82.3127 262.067 82.2735 262.009 82.224 261.96C82.1746 261.91 82.116 261.871 82.0514 261.845C81.9868 261.818 81.9177 261.804 81.8478 261.804H69.077C69.0071 261.804 68.9379 261.818 68.8734 261.845C68.8088 261.871 68.7502 261.91 68.7007 261.96C68.6513 262.009 68.6121 262.067 68.5854 262.132C68.5587 262.196 68.5449 262.265 68.5449 262.335V265.01H60.5632V262.335C60.5632 262.265 60.5494 262.196 60.5227 262.132C60.4959 262.067 60.4567 262.009 60.4073 261.96C60.3579 261.91 60.2992 261.871 60.2347 261.845C60.1701 261.818 60.1009 261.804 60.0311 261.804H47.2603C47.1904 261.804 47.1212 261.818 47.0567 261.845C46.9921 261.871 46.9334 261.91 46.884 261.96C46.8346 262.009 46.7954 262.067 46.7687 262.132C46.7419 262.196 46.7282 262.265 46.7282 262.335V265.01H22.2509C18.8639 265.01 15.6156 266.352 13.2206 268.74C10.8256 271.128 9.48011 274.366 9.4801 277.743V283.501C9.48011 286.878 10.8256 290.116 13.2206 292.504C15.6156 294.892 18.8639 296.233 22.2509 296.233H446.879C450.266 296.233 453.514 294.892 455.909 292.504C458.304 290.116 459.65 286.878 459.65 283.501V277.743C459.65 274.366 458.304 271.128 455.909 268.74C453.514 266.352 450.266 265.01 446.879 265.01Z" fill="#3F3D56"/>
<path d="M108.743 239.118C99.5993 239.118 90.6605 236.415 83.0574 231.35C75.4543 226.285 69.5284 219.085 66.0291 210.662C62.5298 202.239 61.6142 192.971 63.3982 184.029C65.1821 175.087 69.5854 166.874 76.0513 160.427C82.5172 153.98 90.7552 149.59 99.7237 147.812C108.692 146.033 117.988 146.946 126.436 150.435C134.884 153.924 142.105 159.832 147.185 167.412C152.265 174.993 154.977 183.905 154.977 193.022C154.963 205.243 150.088 216.96 141.42 225.602C132.753 234.244 121.001 239.105 108.743 239.118ZM108.743 148.139C99.8399 148.139 91.1363 150.771 83.7333 155.703C76.3303 160.635 70.5604 167.645 67.1532 175.846C63.7459 184.047 62.8545 193.072 64.5914 201.778C66.3284 210.485 70.6159 218.482 76.9116 224.759C83.2074 231.036 91.2286 235.311 99.961 237.043C108.693 238.775 117.745 237.886 125.971 234.489C134.196 231.092 141.227 225.339 146.174 217.958C151.12 210.577 153.76 201.899 153.76 193.022C153.747 181.122 149 169.714 140.56 161.3C132.121 152.885 120.679 148.152 108.743 148.139Z" fill="#3F3D56"/>
<path d="M652.597 164.767H651.15V125.245C651.15 122.241 650.556 119.266 649.403 116.491C648.25 113.716 646.56 111.194 644.43 109.07C642.299 106.946 639.77 105.261 636.987 104.111C634.203 102.962 631.22 102.37 628.207 102.37H544.224C541.211 102.37 538.228 102.962 535.444 104.111C532.661 105.261 530.131 106.946 528.001 109.07C525.871 111.194 524.181 113.716 523.028 116.491C521.875 119.266 521.281 122.241 521.281 125.245V342.068C521.281 345.072 521.875 348.046 523.028 350.821C524.181 353.597 525.871 356.118 528.001 358.242C530.131 360.367 532.661 362.051 535.444 363.201C538.228 364.351 541.211 364.942 544.224 364.942H628.207C631.22 364.942 634.203 364.351 636.987 363.201C639.77 362.051 642.3 360.366 644.43 358.242C646.56 356.118 648.25 353.597 649.403 350.821C650.556 348.046 651.15 345.072 651.15 342.068V192.9H652.597V164.767Z" fill="#3F3D56"/>
<path d="M645.747 125.782V342.289C645.748 346.82 643.944 351.165 640.731 354.369C637.518 357.574 633.161 359.374 628.616 359.375H544.228C539.684 359.374 535.326 357.574 532.113 354.369C528.901 351.165 527.096 346.82 527.097 342.289V125.782C527.098 121.253 528.903 116.908 532.115 113.706C535.328 110.503 539.685 108.703 544.228 108.702H554.466C553.962 109.935 553.77 111.271 553.907 112.595C554.043 113.919 554.504 115.189 555.248 116.293C555.993 117.398 556.999 118.302 558.177 118.928C559.355 119.554 560.669 119.881 562.004 119.881H610.117C611.452 119.881 612.766 119.554 613.944 118.928C615.122 118.302 616.127 117.398 616.872 116.293C617.617 115.189 618.077 113.919 618.214 112.595C618.35 111.271 618.158 109.935 617.654 108.702H628.616C633.16 108.703 637.517 110.503 640.729 113.706C643.942 116.908 645.747 121.253 645.747 125.782Z" fill="#2260FF" fill-opacity="0.55"/>
<path d="M599.508 252.265H574.37V259.692H599.508V252.265Z" fill="#3F3D56"/>
<path d="M629.9 194.436H543.978V197.62H629.9V194.436Z" fill="#3F3D56"/>
<path d="M629.9 204.517H543.978V207.7H629.9V204.517Z" fill="#3F3D56"/>
<path d="M629.9 214.597H543.978V217.78H629.9V214.597Z" fill="#3F3D56"/>
<path d="M629.9 224.677H543.978V227.86H629.9V224.677Z" fill="#3F3D56"/>
<path d="M629.9 234.757H543.978V237.94H629.9V234.757Z" fill="#3F3D56"/>
<path d="M589.94 152.164H575.041V167.019H589.94V152.164Z" fill="#F2F2F2"/>
<path d="M580.745 155.878V173.916H598.837V155.878H580.745ZM598.052 173.134H581.529V156.661H598.052V173.134Z" fill="#3F3D56"/>
<path opacity="0.1" d="M646.264 319.975V343.096C646.265 347.627 644.46 351.972 641.248 355.176C638.035 358.38 633.677 360.181 629.133 360.182H544.745C540.201 360.181 535.843 358.38 532.63 355.176C529.418 351.972 527.613 347.627 527.614 343.096V226.515L598.71 282.516L599.927 283.474L613.152 293.888L614.387 294.865L646.264 319.975Z" fill="black"/>
<path d="M579.639 353.165C594.378 353.165 606.326 341.253 606.326 326.558C606.326 311.863 594.378 299.951 579.639 299.951C564.901 299.951 552.953 311.863 552.953 326.558C552.953 341.253 564.901 353.165 579.639 353.165Z" fill="#F2F2F2"/>
<path d="M587.505 347.081C580.887 347.081 574.418 345.124 568.916 341.459C563.414 337.793 559.125 332.583 556.593 326.488C554.061 320.392 553.398 313.685 554.689 307.214C555.98 300.742 559.167 294.798 563.846 290.133C568.525 285.468 574.487 282.291 580.977 281.003C587.468 279.716 594.195 280.377 600.309 282.902C606.422 285.427 611.648 289.702 615.324 295.188C619.001 300.674 620.963 307.124 620.963 313.722C620.953 322.566 617.425 331.045 611.152 337.299C604.88 343.553 596.375 347.071 587.505 347.081ZM587.505 281.575C581.128 281.575 574.894 283.461 569.592 286.993C564.29 290.525 560.157 295.546 557.717 301.42C555.277 307.294 554.638 313.757 555.882 319.993C557.126 326.229 560.197 331.957 564.706 336.452C569.215 340.948 574.96 344.01 581.215 345.25C587.469 346.49 593.952 345.854 599.843 343.421C605.734 340.988 610.77 336.867 614.313 331.581C617.856 326.295 619.746 320.079 619.746 313.722C619.737 305.199 616.337 297.028 610.292 291.001C604.248 284.975 596.053 281.585 587.505 281.575Z" fill="#3F3D56"/>
</g>
<defs>
<clipPath id="clip0">
<rect width="693" height="397" fill="white"/>
</clipPath>
</defs>
</svg>
