<svg width="700" height="549" viewBox="0 0 700 549" fill="none" xmlns="http://www.w3.org/2000/svg">
<g clip-path="url(#clip0)">
<path d="M719.902 495.712C719.375 501.252 718.041 506.686 715.943 511.842C714.01 516.405 711.404 520.653 708.211 524.447C701.575 532.2 693.169 538.249 683.703 542.085C676.542 545.012 669.04 547.024 661.374 548.073C658.2 547.849 655.049 547.587 651.927 547.304C651.908 547.299 651.883 547.301 651.864 547.296C651.714 547.282 651.564 547.268 651.42 547.259C650.776 547.199 650.131 547.139 649.493 547.078L649.643 547.365L650.117 548.256C649.947 547.958 649.777 547.666 649.606 547.368C649.556 547.278 649.5 547.189 649.451 547.1C655.198 541.385 659.489 534.378 661.964 526.667C664.439 518.956 665.027 510.765 663.677 502.781C662.265 494.853 658.995 487.37 654.135 480.943C654.774 480.749 655.422 480.592 656.077 480.453C657.924 482.973 659.544 485.652 660.919 488.457C665.851 498.461 667.424 509.785 665.406 520.751C663.53 530.674 658.856 539.858 651.933 547.223C652.54 547.18 653.152 547.131 653.751 547.076C665.096 546.117 676.418 543.683 686.708 538.697C695.504 534.538 703.141 528.284 708.945 520.487C715.177 511.908 717.923 501.59 718.395 491.102C718.758 479.804 717.572 468.509 714.868 457.531C712.247 446.337 708.263 435.506 703.005 425.278C702.887 425.046 702.864 424.778 702.939 424.529C703.014 424.28 703.182 424.069 703.408 423.941C703.597 423.814 703.828 423.766 704.051 423.809C704.161 423.837 704.262 423.891 704.348 423.964C704.434 424.037 704.502 424.129 704.548 424.233C705.196 425.496 705.833 426.76 706.445 428.039C711.545 438.688 715.3 449.928 717.623 461.5C719.878 472.664 721.082 484.343 719.902 495.712Z" fill="white"/>
<path d="M33.7525 174.498C33.2124 174.497 32.677 174.396 32.1738 174.2C31.3601 173.888 30.6608 173.336 30.1687 172.618C29.6766 171.9 29.415 171.05 29.4187 170.18V125.116C29.417 123.591 28.8091 122.129 27.7285 121.05C26.6479 119.972 25.1827 119.365 23.6544 119.363H14.4086C10.5885 119.359 6.9261 117.842 4.2249 115.146C1.5237 112.45 0.00428135 108.795 0 104.982V14.3806C0.00428389 10.568 1.5237 6.91267 4.2249 4.21671C6.9261 1.52075 10.5885 0.00427305 14.4086 0H340.536C344.357 0.00427812 348.019 1.52075 350.72 4.21671C353.421 6.91267 354.941 10.568 354.945 14.3806V104.982C354.941 108.795 353.421 112.45 350.72 115.146C348.019 117.842 344.357 119.359 340.536 119.363H88.8121C88.0131 119.364 87.2229 119.53 86.4915 119.851C85.7601 120.172 85.1034 120.641 84.5628 121.229L36.927 173.095C36.5248 173.536 36.0347 173.889 35.4881 174.13C34.9415 174.372 34.3504 174.497 33.7525 174.498ZM14.4086 1.91623C11.0975 1.91996 7.92316 3.23437 5.58191 5.57109C3.24065 7.90781 1.92369 11.076 1.91995 14.3806V104.982C1.92369 108.287 3.24065 111.455 5.58191 113.792C7.92316 116.129 11.0975 117.443 14.4086 117.447H23.6544C25.6917 117.449 27.6449 118.258 29.0855 119.696C30.5261 121.134 31.3364 123.083 31.3386 125.116V170.18C31.3387 170.663 31.4849 171.134 31.7582 171.533C32.0315 171.932 32.419 172.239 32.8701 172.414C33.3212 172.589 33.8148 172.624 34.2862 172.515C34.7575 172.405 35.1847 172.156 35.5118 171.8L83.1476 119.934C83.8682 119.151 84.7437 118.526 85.7187 118.098C86.6936 117.67 87.747 117.448 88.8121 117.447H340.536C343.848 117.443 347.022 116.129 349.363 113.792C351.704 111.455 353.021 108.287 353.025 104.982V14.3806C353.021 11.076 351.704 7.90781 349.363 5.57109C347.022 3.23437 343.848 1.91996 340.536 1.91623H14.4086Z" fill="#CCCCCC"/>
<path d="M35.3424 40.8062C42.3056 40.8062 47.9504 35.1723 47.9504 28.2226C47.9504 21.2728 42.3056 15.639 35.3424 15.639C28.3792 15.639 22.7344 21.2728 22.7344 28.2226C22.7344 35.1723 28.3792 40.8062 35.3424 40.8062Z" fill="#CCCCCC"/>
<path d="M325.827 97.8519H29.1181C28.2343 97.8529 27.3591 97.6801 26.5423 97.3433C25.7256 97.0065 24.9833 96.5124 24.3581 95.8891C23.7328 95.2658 23.2368 94.5256 22.8984 93.7108C22.5599 92.896 22.3857 92.0227 22.3857 91.1406C22.3857 90.2586 22.5599 89.3853 22.8984 88.5705C23.2368 87.7557 23.7328 87.0155 24.3581 86.3922C24.9833 85.7689 25.7256 85.2747 26.5423 84.9379C27.3591 84.6011 28.2343 84.4283 29.1181 84.4294H325.827C326.711 84.4283 327.586 84.6011 328.403 84.9379C329.22 85.2747 329.962 85.7689 330.587 86.3922C331.212 87.0155 331.708 87.7557 332.047 88.5705C332.385 89.3853 332.559 90.2586 332.559 91.1406C332.559 92.0227 332.385 92.896 332.047 93.7108C331.708 94.5256 331.212 95.2658 330.587 95.8891C329.962 96.5124 329.22 97.0065 328.403 97.3433C327.586 97.6801 326.711 97.8529 325.827 97.8519Z" fill="#CCCCCC"/>
<path d="M229.166 69.329H29.1181C28.2343 69.3301 27.3591 69.1572 26.5423 68.8204C25.7256 68.4836 24.9833 67.9895 24.3581 67.3662C23.7328 66.7429 23.2368 66.0027 22.8984 65.1879C22.5599 64.3731 22.3857 63.4998 22.3857 62.6177C22.3857 61.7357 22.5599 60.8624 22.8984 60.0476C23.2368 59.2328 23.7328 58.4926 24.3581 57.8693C24.9833 57.246 25.7256 56.7519 26.5423 56.4151C27.3591 56.0783 28.2343 55.9054 29.1181 55.9065H229.166C230.049 55.9054 230.925 56.0783 231.741 56.4151C232.558 56.7519 233.3 57.246 233.926 57.8693C234.551 58.4926 235.047 59.2328 235.385 60.0476C235.724 60.8624 235.898 61.7357 235.898 62.6177C235.898 63.4998 235.724 64.3731 235.385 65.1879C235.047 66.0027 234.551 66.7429 233.926 67.3662C233.3 67.9895 232.558 68.4836 231.741 68.8204C230.925 69.1572 230.049 69.3301 229.166 69.329Z" fill="#CCCCCC"/>
<path d="M33.7525 494.121C33.2124 494.121 32.677 494.02 32.1738 493.824C31.3602 493.512 30.6608 492.96 30.1687 492.242C29.6766 491.524 29.4151 490.673 29.4187 489.803V444.74C29.417 443.215 28.8091 441.752 27.7285 440.674C26.6479 439.595 25.1827 438.988 23.6544 438.987H14.4086C10.5885 438.982 6.92611 437.466 4.22491 434.77C1.52371 432.074 0.00429151 428.419 0 424.606V334.004C0.00428389 330.192 1.5237 326.536 4.2249 323.84C6.92609 321.144 10.5885 319.628 14.4086 319.624H340.536C344.357 319.628 348.019 321.144 350.72 323.84C353.421 326.536 354.941 330.192 354.945 334.004V424.606C354.941 428.419 353.421 432.074 350.72 434.77C348.019 437.466 344.357 438.982 340.536 438.987H88.8121C88.0131 438.988 87.2229 439.154 86.4915 439.475C85.7601 439.796 85.1034 440.265 84.5628 440.852L36.927 492.718C36.5248 493.16 36.0347 493.512 35.4881 493.754C34.9415 493.996 34.3504 494.121 33.7525 494.121ZM14.4086 321.54C11.0975 321.543 7.92316 322.858 5.58191 325.195C3.24065 327.531 1.92369 330.7 1.91995 334.004V424.606C1.92369 427.911 3.24065 431.079 5.58191 433.416C7.92316 435.752 11.0975 437.067 14.4086 437.07H23.6544C25.6917 437.073 27.6449 437.881 29.0855 439.319C30.5261 440.757 31.3364 442.707 31.3386 444.74V489.803C31.3387 490.286 31.4849 490.758 31.7582 491.157C32.0315 491.555 32.419 491.863 32.8701 492.038C33.3212 492.213 33.8148 492.248 34.2862 492.138C34.7575 492.029 35.1847 491.779 35.5118 491.423L83.1476 439.557C83.8682 438.775 84.7437 438.149 85.7187 437.721C86.6936 437.293 87.747 437.072 88.8121 437.07H340.536C343.848 437.067 347.022 435.752 349.363 433.416C351.704 431.079 353.021 427.911 353.025 424.606V334.004C353.021 330.7 351.704 327.531 349.363 325.195C347.022 322.858 343.848 321.544 340.536 321.54L14.4086 321.54Z" fill="#CCCCCC"/>
<path d="M515.356 328.018C514.758 328.017 514.167 327.892 513.62 327.651C513.074 327.409 512.584 327.056 512.182 326.615L464.546 274.749C464.005 274.162 463.348 273.693 462.617 273.372C461.886 273.05 461.095 272.884 460.296 272.883H208.572C204.752 272.879 201.09 271.362 198.388 268.666C195.687 265.97 194.168 262.315 194.164 258.503V167.901C194.168 164.088 195.687 160.433 198.388 157.737C201.09 155.041 204.752 153.524 208.572 153.52H534.7C538.52 153.524 542.182 155.041 544.884 157.737C547.585 160.433 549.104 164.088 549.108 167.901V258.503C549.104 262.315 547.585 265.97 544.884 268.666C542.182 271.362 538.52 272.879 534.7 272.883H525.454C523.926 272.885 522.461 273.492 521.38 274.57C520.299 275.649 519.691 277.111 519.69 278.637V323.7C519.694 324.57 519.432 325.42 518.94 326.138C518.448 326.856 517.748 327.408 516.935 327.72C516.431 327.916 515.896 328.017 515.356 328.018ZM208.572 155.436C205.261 155.44 202.087 156.754 199.745 159.091C197.404 161.428 196.087 164.596 196.083 167.901V258.503C196.087 261.807 197.404 264.975 199.745 267.312C202.087 269.649 205.261 270.963 208.572 270.967H460.296C461.362 270.968 462.415 271.19 463.39 271.618C464.365 272.046 465.24 272.671 465.961 273.454L513.597 325.32C513.924 325.676 514.351 325.925 514.822 326.035C515.294 326.144 515.787 326.109 516.238 325.934C516.689 325.759 517.077 325.452 517.35 325.053C517.624 324.655 517.77 324.183 517.77 323.7V278.637C517.772 276.603 518.582 274.654 520.023 273.216C521.464 271.778 523.417 270.969 525.454 270.967H534.7C538.011 270.963 541.185 269.649 543.527 267.312C545.868 264.975 547.185 261.807 547.189 258.503V167.901C547.185 164.596 545.868 161.428 543.527 159.091C541.185 156.755 538.011 155.44 534.7 155.436L208.572 155.436Z" fill="#3F3D56"/>
<path d="M35.3424 360.43C42.3056 360.43 47.9504 354.796 47.9504 347.846C47.9504 340.896 42.3056 335.263 35.3424 335.263C28.3792 335.263 22.7344 340.896 22.7344 347.846C22.7344 354.796 28.3792 360.43 35.3424 360.43Z" fill="#CCCCCC"/>
<path d="M325.827 417.475H29.1181C28.2343 417.476 27.3591 417.304 26.5423 416.967C25.7256 416.63 24.9833 416.136 24.3581 415.513C23.7328 414.889 23.2368 414.149 22.8984 413.334C22.5599 412.52 22.3857 411.646 22.3857 410.764C22.3857 409.882 22.5599 409.009 22.8984 408.194C23.2368 407.379 23.7328 406.639 24.3581 406.016C24.9833 405.392 25.7256 404.898 26.5423 404.562C27.3591 404.225 28.2343 404.052 29.1181 404.053H325.827C327.611 404.053 329.321 404.76 330.582 406.019C331.843 407.277 332.551 408.984 332.551 410.764C332.551 412.544 331.843 414.251 330.582 415.51C329.321 416.768 327.611 417.475 325.827 417.475Z" fill="#CCCCCC"/>
<path d="M229.166 388.953H29.1181C28.2343 388.954 27.3591 388.781 26.5423 388.444C25.7256 388.107 24.9833 387.613 24.3581 386.99C23.7328 386.366 23.2368 385.626 22.8984 384.811C22.5599 383.997 22.3857 383.123 22.3857 382.241C22.3857 381.359 22.5599 380.486 22.8984 379.671C23.2368 378.856 23.7328 378.116 24.3581 377.493C24.9833 376.87 25.7256 376.375 26.5423 376.039C27.3591 375.702 28.2343 375.529 29.1181 375.53H229.166C230.049 375.529 230.925 375.702 231.741 376.039C232.558 376.375 233.3 376.87 233.926 377.493C234.551 378.116 235.047 378.856 235.385 379.671C235.724 380.486 235.898 381.359 235.898 382.241C235.898 383.123 235.724 383.997 235.385 384.811C235.047 385.626 234.551 386.366 233.926 386.99C233.3 387.613 232.558 388.107 231.741 388.444C230.925 388.781 230.049 388.954 229.166 388.953Z" fill="#CCCCCC"/>
<path d="M229.506 193.487C236.47 193.487 242.115 187.853 242.115 180.904C242.115 173.954 236.47 168.32 229.506 168.32C222.543 168.32 216.898 173.954 216.898 180.904C216.898 187.853 222.543 193.487 229.506 193.487Z" fill="#3F3D56"/>
<path d="M519.991 250.533H223.282C221.499 250.533 219.788 249.826 218.527 248.567C217.266 247.309 216.558 245.602 216.558 243.822C216.558 242.042 217.266 240.335 218.527 239.076C219.788 237.818 221.499 237.11 223.282 237.11H519.991C521.774 237.11 523.485 237.818 524.746 239.076C526.007 240.335 526.715 242.042 526.715 243.822C526.715 245.602 526.007 247.309 524.746 248.567C523.485 249.826 521.774 250.533 519.991 250.533Z" fill="#2260FF" fill-opacity="0.55"/>
<path d="M423.329 222.01H223.282C222.398 222.011 221.523 221.838 220.706 221.502C219.889 221.165 219.147 220.671 218.522 220.047C217.896 219.424 217.4 218.684 217.062 217.869C216.724 217.054 216.549 216.181 216.549 215.299C216.549 214.417 216.724 213.543 217.062 212.729C217.4 211.914 217.896 211.174 218.522 210.55C219.147 209.927 219.889 209.433 220.706 209.096C221.523 208.759 222.398 208.587 223.282 208.588H423.329C424.213 208.587 425.088 208.759 425.905 209.096C426.722 209.433 427.464 209.927 428.089 210.55C428.714 211.174 429.21 211.914 429.549 212.729C429.887 213.543 430.061 214.417 430.061 215.299C430.061 216.181 429.887 217.054 429.549 217.869C429.21 218.684 428.714 219.424 428.089 220.047C427.464 220.671 426.722 221.165 425.905 221.502C425.088 221.838 424.213 222.011 423.329 222.01Z" fill="#2260FF" fill-opacity="0.55"/>
</g>
<defs>
<clipPath id="clip0">
<rect width="809" height="549" fill="white"/>
</clipPath>
</defs>
</svg>
