<svg width="72" height="72" viewBox="0 0 72 72" fill="none" xmlns="http://www.w3.org/2000/svg">
<path d="M36.0045 0.74939C55.881 0.74939 72 16.9314 72 36.8934C72 52.8594 61.686 66.4044 47.376 71.1879C45.576 71.5209 44.919 70.4049 44.919 69.4464C44.919 68.5869 44.9505 66.3144 44.9685 63.2994C54.981 65.4819 57.096 58.4529 57.096 58.4529C58.7295 54.2769 61.092 53.1654 61.092 53.1654C64.3635 50.9244 60.849 50.9694 60.849 50.9694C57.2355 51.2259 55.3365 54.6954 55.3365 54.6954C52.1235 60.2169 46.908 58.6239 44.856 57.6969C44.532 55.3614 43.6005 53.7684 42.57 52.8639C50.562 51.9504 58.968 48.8499 58.968 35.0034C58.968 31.0569 57.564 27.8304 55.26 25.3014C55.6335 24.3879 56.8665 20.7114 54.909 15.7389C54.909 15.7389 51.885 14.7669 45.009 19.4424C42.138 18.6414 39.06 18.2409 35.9955 18.2274C32.94 18.2454 29.8575 18.6414 26.982 19.4469C20.1105 14.7714 17.091 15.7434 17.091 15.7434C15.129 20.7204 16.362 24.3924 16.731 25.3059C14.4225 27.8349 13.032 31.0614 13.032 35.0079C13.032 48.8904 21.447 51.9459 29.466 52.8414C28.1745 53.9574 27.0225 56.1624 27.0225 59.5329C27.0225 64.3659 27.0675 68.2629 27.0675 69.4464C27.0675 70.4139 26.4195 71.5389 24.5925 71.1834C10.305 66.3954 0 52.8549 0 36.8934C0 16.9314 16.119 0.74939 36.0045 0.74939Z" fill="black"/>
</svg>
