<svg width="710" height="498" viewBox="0 0 764 536" fill="none" xmlns="http://www.w3.org/2000/svg">
<g clip-path="url(#clip0)">
<path d="M613.539 498.524C608.58 517.401 591.204 529.197 591.204 529.197C591.204 529.197 581.867 510.388 586.826 491.511C591.785 472.634 609.162 460.838 609.162 460.838C609.162 460.838 618.498 479.647 613.539 498.524Z" fill="#2260FF"/>
<path d="M606.018 494.53C592.128 508.247 590.574 529.187 590.574 529.187C590.574 529.187 611.539 527.887 625.429 514.17C639.318 500.453 640.872 479.514 640.872 479.514C640.872 479.514 619.907 480.813 606.018 494.53Z" fill="#2260FF" fill-opacity="0.55"/>
<path d="M102.76 427.115H128.918L193.377 401.902C193.377 401.902 239.152 383.225 235.415 418.711C231.678 454.196 225.139 501.821 225.139 501.821C225.139 501.821 204.587 492.483 193.377 495.284C182.166 498.086 189.64 438.321 189.64 438.321C189.64 438.321 98.0895 482.211 89.6819 476.608C81.2742 471.005 79.4058 431.784 79.4058 431.784L102.76 427.115Z" fill="#2F2E41"/>
<path opacity="0.1" d="M102.76 427.115H128.918L193.377 401.902C193.377 401.902 239.152 383.225 235.415 418.711C231.678 454.196 225.139 501.821 225.139 501.821C225.139 501.821 204.587 492.483 193.377 495.284C182.166 498.086 189.64 438.321 189.64 438.321C189.64 438.321 98.0895 482.211 89.6819 476.608C81.2742 471.005 79.4058 431.784 79.4058 431.784L102.76 427.115Z" fill="black"/>
<path d="M143.971 345.232L175.627 390.696L249.428 452.328C249.428 452.328 317.623 468.203 308.282 479.409C298.94 490.615 241.954 468.203 241.954 468.203C241.954 468.203 156.943 406.571 154.141 401.902C151.338 397.233 120.51 353.343 120.51 353.343L143.971 345.232Z" fill="#A0616A"/>
<path opacity="0.1" d="M143.971 345.232L175.627 390.696L249.428 452.328C249.428 452.328 317.623 468.203 308.282 479.409C298.94 490.615 241.954 468.203 241.954 468.203C241.954 468.203 156.943 406.571 154.141 401.902C151.338 397.233 120.51 353.343 120.51 353.343L143.971 345.232Z" fill="black"/>
<path d="M125.181 308.52L145.733 348.674C145.733 348.674 141.062 368.284 133.589 370.152C126.115 372.019 94.3528 345.872 94.3528 345.872L125.181 308.52Z" fill="#D0CDE1"/>
<path opacity="0.1" d="M125.181 308.52L145.733 348.674C145.733 348.674 141.062 368.284 133.589 370.152C126.115 372.019 94.3528 345.872 94.3528 345.872L125.181 308.52Z" fill="black"/>
<path d="M375.908 406.325L381.979 431.358C382.046 431.637 382.036 431.929 381.948 432.202L354.409 518.228C354.3 518.569 354.078 518.862 353.779 519.059C353.48 519.255 353.122 519.343 352.766 519.308C352.41 519.273 352.077 519.117 351.822 518.866C351.567 518.615 351.406 518.284 351.365 517.928L347.556 484.416C347.53 484.194 347.553 483.968 347.623 483.755L372.9 406.209C373.006 405.885 373.214 405.605 373.493 405.41C373.773 405.216 374.108 405.118 374.448 405.131C374.788 405.144 375.115 405.267 375.378 405.483C375.642 405.698 375.828 405.994 375.908 406.325Z" fill="#2F2E41"/>
<path d="M373.675 408.439L379.279 429.917L354.99 508.358L349.386 484.078L373.675 408.439Z" fill="#F2F2F2"/>
<path d="M251.296 525.167C252.23 527.968 348.451 524.233 349.386 523.299C350.2 522.13 350.889 520.878 351.441 519.564C352.319 517.696 353.122 515.828 353.122 515.828L349.386 485.591L254.099 482.211C254.099 482.211 251.716 507.835 251.231 519.564C251.109 522.524 251.109 524.606 251.296 525.167Z" fill="#2F2E41"/>
<path opacity="0.1" d="M337.241 489.682L339.109 515.828H297.071V489.682H337.241Z" fill="black"/>
<path opacity="0.1" d="M283.059 498.085L283.309 498.036L282.124 509.292H258.77V498.085H283.059Z" fill="black"/>
<path opacity="0.1" d="M251.296 525.167C252.23 527.968 348.451 524.233 349.386 523.299C350.2 522.13 350.889 520.878 351.441 519.564H251.231C251.109 522.524 251.109 524.606 251.296 525.167Z" fill="black"/>
<path d="M139.194 295.446C162.411 295.446 181.232 276.632 181.232 253.424C181.232 230.216 162.411 211.402 139.194 211.402C115.977 211.402 97.1554 230.216 97.1554 253.424C97.1554 276.632 115.977 295.446 139.194 295.446Z" fill="#A0616A"/>
<path d="M136.391 290.777C136.391 290.777 122.378 315.056 119.576 328.13C116.773 341.203 77.5375 301.983 77.5375 301.983L72.3994 288.442C72.3994 288.442 109.3 271.167 106.497 257.159C103.695 243.152 136.391 290.777 136.391 290.777Z" fill="#A0616A"/>
<path d="M143.865 363.615L182.166 414.042L273.717 482.211C273.717 482.211 340.044 496.218 325.097 506.49C310.15 516.762 267.177 497.152 267.177 497.152C267.177 497.152 174.693 447.659 155.075 427.115C135.457 406.571 99.0237 372.02 99.0237 372.02L143.865 363.615Z" fill="#A0616A"/>
<path d="M92.4844 442.056L103.695 459.799L170.598 438.759C185.278 434.142 201.375 435.841 214.396 444.041C226.073 451.395 233.547 463.067 216.731 480.343C183.1 514.895 160.68 496.218 160.68 496.218C160.68 496.218 47.6435 549.446 28.9598 523.299C10.2761 497.152 9.3419 484.078 9.3419 484.078C9.3419 484.078 81.2742 439.255 92.4844 442.056Z" fill="#2F2E41"/>
<path d="M232.612 503.689C232.612 503.689 262.506 523.299 227.007 532.637C191.508 541.975 165.351 528.902 165.351 528.902C165.351 528.902 134.523 528.902 134.523 513.027C134.523 497.152 144.799 495.284 144.799 495.284L176.561 499.953C176.561 499.953 214.863 489.681 232.612 503.689Z" fill="#D0CDE1"/>
<path d="M173.68 242.853C176.541 244.128 179.378 245.637 182.489 246.007C185.6 246.377 189.142 245.292 190.614 242.528C191.409 241.035 191.5 239.278 191.537 237.587C191.65 232.459 191.279 226.916 188.028 222.948C185.959 220.422 182.939 218.83 180.797 216.366C179.263 214.6 178.242 212.46 177.143 210.396C172.978 202.577 166.811 195.062 158.241 192.808C154.662 191.867 150.908 191.912 147.208 191.965L125.626 192.269C122.134 192.318 118.587 192.376 115.244 193.386C108.297 195.486 103.24 201.325 98.6072 206.909C95.1416 211.087 91.6668 215.308 89.0659 220.072C85.3368 227.025 83.4512 234.816 83.5888 242.703C83.5599 244.726 83.8212 246.742 84.3647 248.691C85.0005 250.478 85.7882 252.208 86.7192 253.861C90.7665 261.807 93.1697 271.733 88.6116 279.398C96.5294 276.165 104.364 271.926 109.587 265.156C111.923 262.127 113.756 258.582 116.869 256.359C119.983 254.137 125.057 253.944 127.055 257.206C127.742 258.525 128.095 259.993 128.085 261.48C128.231 263.928 128.227 266.471 129.265 268.693C130.304 270.916 132.778 272.709 135.139 272.044C139.207 270.898 138.817 264.658 141.95 261.824C144.329 259.671 148 260.083 151.056 259.105C154.618 257.967 157.29 254.883 158.812 251.469C159.969 248.874 159.953 242.085 162.143 240.679C164.889 238.917 171.134 241.719 173.68 242.853Z" fill="#2F2E41"/>
<path d="M69.0623 284.013C70.9535 283.508 72.9446 283.513 74.8332 284.027C80.8299 285.637 94.273 289.897 97.1553 296.38C100.892 304.784 113.971 317.858 113.971 317.858C113.971 317.858 131.72 335.6 127.983 347.74C124.247 359.88 110.234 373.887 110.234 373.887C110.234 373.887 113.971 431.784 95.287 446.726C76.6032 461.667 69.1298 451.395 69.1298 465.402C69.1298 479.409 11.2102 523.299 0 496.218C0 496.218 5.60512 445.792 3.73675 428.049C1.89532 410.562 4.59107 301.46 69.0623 284.013Z" fill="#D0CDE1"/>
<path d="M99.0238 307.586C99.0238 307.586 156.009 349.608 145.733 367.35C145.733 367.35 111.168 384.159 103.695 383.225C96.2212 382.292 67.2614 349.608 59.7879 346.806C52.3144 344.005 48.5777 293.578 99.0238 307.586Z" fill="#D0CDE1"/>
<path d="M353.623 214.66C379.111 214.66 399.772 194.006 399.772 168.529C399.772 143.051 379.111 122.397 353.623 122.397C328.135 122.397 307.473 143.051 307.473 168.529C307.473 194.006 328.135 214.66 353.623 214.66Z" fill="#F2F2F2"/>
<path d="M734.795 108.616H476.18V54.5215H734.795V108.616ZM477.319 107.477H733.656V55.6603H477.319V107.477Z" fill="#3F3D56"/>
<path d="M715.997 65.3404H458.522V118.296H715.997V65.3404Z" fill="#2260FF" fill-opacity="0.55"/>
<path d="M295.759 14.8048C297.961 14.8048 299.747 13.0202 299.747 10.8188C299.747 8.61746 297.961 6.83289 295.759 6.83289C293.557 6.83289 291.772 8.61746 291.772 10.8188C291.772 13.0202 293.557 14.8048 295.759 14.8048Z" fill="#6C63FF"/>
<path d="M309.43 14.8048C311.633 14.8048 313.418 13.0202 313.418 10.8188C313.418 8.61746 311.633 6.83289 309.43 6.83289C307.228 6.83289 305.443 8.61746 305.443 10.8188C305.443 13.0202 307.228 14.8048 309.43 14.8048Z" fill="#6C63FF"/>
<path d="M323.102 14.8048C325.304 14.8048 327.089 13.0202 327.089 10.8188C327.089 8.61746 325.304 6.83289 323.102 6.83289C320.899 6.83289 319.114 8.61746 319.114 10.8188C319.114 13.0202 320.899 14.8048 323.102 14.8048Z" fill="#6C63FF"/>
<path d="M764 312.039H284.366V0H764V312.039ZM285.506 310.901H762.861V1.13883H285.506V310.901Z" fill="#3F3D56"/>
<path d="M763.43 17.2732H284.936V18.412H763.43V17.2732Z" fill="#3F3D56"/>
<path d="M296.898 13.666C295.997 13.666 295.116 13.3988 294.367 12.8983C293.617 12.3978 293.033 11.6863 292.688 10.8539C292.343 10.0216 292.253 9.10563 292.429 8.22198C292.605 7.33834 293.039 6.52666 293.676 5.88958C294.313 5.25251 295.125 4.81866 296.009 4.64289C296.893 4.46712 297.81 4.55733 298.642 4.90211C299.475 5.2469 300.187 5.83077 300.687 6.57989C301.188 7.329 301.455 8.20972 301.455 9.11068C301.454 10.3184 300.974 11.4763 300.119 12.3302C299.265 13.1842 298.107 13.6646 296.898 13.666ZM296.898 5.69419C296.222 5.69419 295.562 5.89456 295 6.26997C294.437 6.64538 293.999 7.17897 293.741 7.80325C293.482 8.42753 293.414 9.11447 293.546 9.77721C293.678 10.4399 294.004 11.0487 294.482 11.5265C294.96 12.0043 295.569 12.3297 296.232 12.4615C296.895 12.5934 297.582 12.5257 298.206 12.2671C298.831 12.0085 299.365 11.5706 299.74 11.0088C300.116 10.4469 300.316 9.7864 300.316 9.11068C300.315 8.20489 299.955 7.33651 299.314 6.69602C298.673 6.05553 297.805 5.69524 296.898 5.69419Z" fill="#3F3D56"/>
<path d="M310.57 13.666C309.668 13.666 308.787 13.3988 308.038 12.8983C307.288 12.3978 306.704 11.6863 306.359 10.8539C306.015 10.0216 305.924 9.10563 306.1 8.22198C306.276 7.33834 306.71 6.52666 307.347 5.88958C307.985 5.25251 308.797 4.81866 309.681 4.64289C310.565 4.46712 311.481 4.55733 312.314 4.90211C313.146 5.2469 313.858 5.83077 314.359 6.57989C314.859 7.329 315.127 8.20972 315.127 9.11068C315.125 10.3184 314.645 11.4763 313.79 12.3302C312.936 13.1842 311.778 13.6646 310.57 13.666ZM310.57 5.69419C309.894 5.69419 309.233 5.89456 308.671 6.26997C308.109 6.64538 307.671 7.17897 307.412 7.80325C307.153 8.42753 307.086 9.11447 307.218 9.77721C307.349 10.4399 307.675 11.0487 308.153 11.5265C308.631 12.0043 309.24 12.3297 309.903 12.4615C310.566 12.5934 311.253 12.5257 311.878 12.2671C312.502 12.0085 313.036 11.5706 313.411 11.0088C313.787 10.4469 313.987 9.7864 313.987 9.11068C313.986 8.20489 313.626 7.33651 312.985 6.69602C312.345 6.05553 311.476 5.69524 310.57 5.69419Z" fill="#3F3D56"/>
<path d="M324.241 13.666C323.34 13.666 322.459 13.3988 321.709 12.8983C320.96 12.3977 320.376 11.6863 320.031 10.8539C319.686 10.0216 319.596 9.10563 319.771 8.22199C319.947 7.33834 320.381 6.52666 321.019 5.88958C321.656 5.25251 322.468 4.81866 323.352 4.64289C324.236 4.46712 325.152 4.55733 325.985 4.90211C326.818 5.24689 327.529 5.83075 328.03 6.57987C328.531 7.32899 328.798 8.20972 328.798 9.11067C328.797 10.3184 328.316 11.4762 327.462 12.3302C326.607 13.1842 325.449 13.6646 324.241 13.666ZM324.241 5.69419C323.565 5.69419 322.904 5.89456 322.342 6.26997C321.78 6.64538 321.342 7.17896 321.083 7.80324C320.825 8.42752 320.757 9.11446 320.889 9.7772C321.021 10.4399 321.346 11.0487 321.824 11.5265C322.302 12.0043 322.911 12.3297 323.574 12.4615C324.237 12.5934 324.924 12.5257 325.549 12.2671C326.173 12.0085 326.707 11.5706 327.083 11.0088C327.458 10.4469 327.659 9.7864 327.659 9.11068C327.658 8.20489 327.297 7.33651 326.657 6.69602C326.016 6.05553 325.147 5.69524 324.241 5.69419Z" fill="#3F3D56"/>
<path d="M435.734 17.8426H434.595V311.912H435.734V17.8426Z" fill="#3F3D56"/>
<path d="M572.734 162.426H488.997V173.814H572.734V162.426Z" fill="#F2F2F2"/>
<path d="M704.319 162.426H620.583V173.814H704.319V162.426Z" fill="#F2F2F2"/>
<path d="M577.86 168.689H492.984V156.162H577.86V168.689ZM494.124 167.55H576.721V157.301H494.124V167.55Z" fill="#3F3D56"/>
<path d="M572.734 250.685H488.997V262.073H572.734V250.685Z" fill="#F2F2F2"/>
<path d="M577.86 256.949H492.984V244.421H577.86V256.949ZM494.124 255.81H576.721V245.56H494.124V255.81Z" fill="#3F3D56"/>
<path d="M704.604 205.416H489.282V216.805H704.604V205.416Z" fill="#F2F2F2"/>
<path d="M709.731 212.819H493.269V200.292H709.731V212.819ZM494.409 211.68H708.592V201.431H494.409V211.68Z" fill="#3F3D56"/>
<path d="M709.446 168.689H624.57V156.162H709.446V168.689ZM625.71 167.55H708.307V157.301H625.71V167.55Z" fill="#3F3D56"/>
<path d="M361.433 202.595C352.165 202.595 343.105 199.848 335.399 194.701C327.693 189.554 321.687 182.238 318.14 173.679C314.593 165.12 313.665 155.702 315.473 146.615C317.282 137.529 321.745 129.183 328.298 122.632C334.851 116.081 343.201 111.62 352.291 109.812C361.381 108.005 370.803 108.932 379.365 112.478C387.928 116.023 395.246 122.027 400.395 129.73C405.544 137.433 408.292 146.489 408.292 155.754C408.278 168.172 403.337 180.079 394.552 188.86C385.767 197.641 373.856 202.581 361.433 202.595ZM361.433 110.332C352.446 110.332 343.66 112.996 336.188 117.987C328.715 122.978 322.891 130.072 319.452 138.371C316.013 146.671 315.113 155.804 316.866 164.615C318.619 173.426 322.947 181.519 329.302 187.872C335.657 194.224 343.753 198.55 352.568 200.303C361.382 202.056 370.519 201.156 378.822 197.718C387.125 194.28 394.221 188.458 399.214 180.989C404.207 173.519 406.872 164.737 406.872 155.754C406.859 143.711 402.067 132.166 393.548 123.65C385.03 115.135 373.48 110.345 361.433 110.332Z" fill="#3F3D56"/>
<path d="M732.05 528.356H531.122V529.776H732.05V528.356Z" fill="#3F3D56"/>
</g>
<defs>
<clipPath id="clip0">
<rect width="764" height="536" fill="white"/>
</clipPath>
</defs>
</svg>
