<svg width="72" height="72" viewBox="0 0 72 72" fill="none" xmlns="http://www.w3.org/2000/svg">
<g clip-path="url(#clip0)">
<path d="M66.8073 0H5.19269C2.32471 0 0 2.32471 0 5.19269V66.8073C0 69.6753 2.32471 72 5.19269 72H66.8073C69.6753 72 72 69.6753 72 66.8073V5.19269C72 2.32471 69.6753 0 66.8073 0V0ZM25.5388 54.4219H16.7712V28.0443H25.5388V54.4219ZM21.1553 24.4424H21.0981C18.156 24.4424 16.2532 22.4171 16.2532 19.8858C16.2532 17.2974 18.2142 15.3281 21.2135 15.3281C24.2128 15.3281 26.0585 17.2974 26.1156 19.8858C26.1156 22.4171 24.2128 24.4424 21.1553 24.4424ZM57.1531 54.4219H48.3865V40.3105C48.3865 36.7641 47.1171 34.3455 43.9448 34.3455C41.5228 34.3455 40.0803 35.9769 39.4464 37.5518C39.2146 38.1154 39.158 38.9031 39.158 39.6914V54.4219H30.3909C30.3909 54.4219 30.5057 30.5189 30.3909 28.0443H39.158V31.7791C40.3231 29.9817 42.4078 27.4252 47.0594 27.4252C52.8278 27.4252 57.1531 31.1951 57.1531 39.297V54.4219Z" fill="black"/>
</g>
<defs>
<clipPath id="clip0">
<rect width="72" height="72" fill="white"/>
</clipPath>
</defs>
</svg>
