<svg width="681" height="443" viewBox="0 0 681 443" fill="none" xmlns="http://www.w3.org/2000/svg">
<g clip-path="url(#clip0)">
<path d="M452.976 405.347L452.128 404.093C453.382 403.251 454.627 402.397 455.863 401.531L456.736 402.768C455.493 403.64 454.239 404.5 452.976 405.347Z" fill="#CCCCCC"/>
<path d="M330.546 443L330.536 441.488C333.604 441.466 336.706 441.381 339.754 441.234L339.828 442.744C336.758 442.892 333.635 442.978 330.546 443ZM321.263 442.877C318.182 442.773 315.063 442.603 311.992 442.372L312.106 440.865C315.156 441.094 318.254 441.262 321.314 441.365L321.263 442.877ZM349.088 442.107L348.952 440.601C351.997 440.329 355.08 439.989 358.115 439.589L358.314 441.088C355.258 441.49 352.154 441.833 349.088 442.107ZM302.75 441.487C299.683 441.128 296.589 440.701 293.553 440.217L293.793 438.724C296.808 439.205 299.881 439.629 302.927 439.985L302.75 441.487ZM367.489 439.686L367.227 438.196C370.239 437.672 373.282 437.076 376.274 436.425L376.598 437.902C373.586 438.557 370.521 439.158 367.489 439.686ZM284.418 438.566C281.398 437.954 278.351 437.271 275.359 436.534L275.724 435.066C278.695 435.798 281.721 436.477 284.72 437.084L284.418 438.566ZM385.624 435.738L385.238 434.276C388.197 433.501 391.18 432.652 394.104 431.754L394.551 433.198C391.607 434.103 388.603 434.958 385.624 435.738ZM266.374 434.117C263.414 433.254 260.428 432.315 257.501 431.327L257.989 429.894C260.896 430.876 263.86 431.809 266.8 432.666L266.374 434.117ZM403.363 430.286L402.855 428.861C405.738 427.841 408.639 426.745 411.477 425.605L412.045 427.007C409.187 428.155 406.266 429.259 403.363 430.286ZM248.756 428.166C245.875 427.056 242.981 425.87 240.155 424.642L240.762 423.257C243.569 424.476 246.443 425.653 249.304 426.756L248.756 428.166ZM420.581 423.367L419.954 421.99C422.745 420.73 425.543 419.396 428.272 418.024L428.956 419.373C426.209 420.755 423.391 422.099 420.581 423.367ZM231.712 420.762C228.939 419.417 226.156 417.994 223.442 416.534L224.163 415.203C226.859 416.654 229.622 418.067 232.377 419.403L231.712 420.762ZM437.156 415.033L436.416 413.713C439.089 412.226 441.766 410.663 444.372 409.067L445.167 410.355C442.543 411.962 439.848 413.536 437.156 415.033ZM215.358 411.963C212.711 410.393 210.058 408.744 207.474 407.061L208.304 405.796C210.871 407.467 213.505 409.105 216.134 410.664L215.358 411.963ZM199.804 401.837C197.298 400.053 194.793 398.19 192.36 396.3L193.293 395.108C195.71 396.985 198.197 398.835 200.686 400.607L199.804 401.837ZM185.154 390.46C182.802 388.471 180.462 386.408 178.199 384.327L179.229 383.216C181.476 385.282 183.8 387.332 186.136 389.307L185.154 390.46ZM171.507 377.913C169.331 375.739 167.171 373.49 165.089 371.229L166.207 370.207C168.275 372.452 170.42 374.686 172.582 376.846L171.507 377.913ZM158.955 364.286C156.971 361.944 155.006 359.525 153.117 357.097L154.317 356.171C156.193 358.582 158.144 360.984 160.115 363.311L158.955 364.286ZM147.585 349.673C145.801 347.171 144.046 344.599 142.368 342.027L143.641 341.203C145.307 343.758 147.05 346.313 148.822 348.797L147.585 349.673ZM137.477 334.173C135.908 331.533 134.375 328.824 132.92 326.124L134.257 325.408C135.702 328.091 137.225 330.78 138.783 333.403L137.477 334.173ZM128.705 317.893C127.365 315.134 126.065 312.309 124.841 309.496L126.234 308.895C127.449 311.688 128.74 314.494 130.071 317.234L128.705 317.893ZM121.335 300.947C120.23 298.083 119.172 295.158 118.19 292.253L119.628 291.77C120.603 294.655 121.654 297.56 122.752 300.405L121.335 300.947Z" fill="#CCCCCC"/>
<path d="M115.389 283.345C114.965 281.89 114.556 280.429 114.161 278.961L115.627 278.57C116.019 280.027 116.425 281.478 116.846 282.924L115.389 283.345Z" fill="#CCCCCC"/>
<path d="M548.361 196.849C548.193 195.349 548.01 193.853 547.812 192.363L549.316 192.164C549.516 193.665 549.7 195.171 549.869 196.681L548.361 196.849Z" fill="#CCCCCC"/>
<path d="M528.726 318.765L527.363 318.1C528.667 315.447 529.934 312.73 531.129 310.024L532.518 310.633C531.315 313.358 530.039 316.094 528.726 318.765ZM535.974 302.352L534.562 301.8C535.645 299.05 536.686 296.239 537.655 293.445L539.09 293.939C538.113 296.752 537.065 299.583 535.974 302.352ZM541.858 285.406L540.405 284.971C541.26 282.137 542.067 279.25 542.804 276.391L544.274 276.767C543.532 279.646 542.719 282.552 541.858 285.406ZM546.335 268.038L544.851 267.722C545.471 264.832 546.04 261.889 546.542 258.975L548.038 259.231C547.532 262.165 546.959 265.128 546.335 268.038ZM549.38 250.362L547.875 250.167C548.257 247.241 548.585 244.261 548.849 241.312L550.361 241.446C550.095 244.416 549.765 247.416 549.38 250.362ZM550.981 232.498L549.465 232.424C549.61 229.477 549.696 226.481 549.723 223.519L551.241 223.532C551.214 226.514 551.126 229.531 550.981 232.498ZM549.626 214.61C549.535 211.654 549.382 208.662 549.172 205.717L550.686 205.61C550.897 208.575 551.051 211.588 551.143 214.564L549.626 214.61Z" fill="#CCCCCC"/>
<path d="M522.406 330.692L521.086 329.945C521.831 328.636 522.564 327.319 523.283 325.994L524.618 326.713C523.894 328.048 523.156 329.374 522.406 330.692Z" fill="#CCCCCC"/>
<path d="M129.502 126.951L128.132 126.301C128.788 124.93 129.458 123.568 130.141 122.213L131.497 122.891C130.818 124.237 130.154 125.591 129.502 126.951Z" fill="#CCCCCC"/>
<path d="M135.735 114.901L134.408 114.167C135.879 111.526 137.425 108.881 139.003 106.304L140.298 107.092C138.731 109.651 137.196 112.278 135.735 114.901ZM518.206 108.153C516.656 105.589 515.029 103.019 513.37 100.514L514.637 99.681C516.307 102.203 517.945 104.791 519.506 107.373L518.206 108.153ZM145.181 99.4735L143.919 98.6341C145.603 96.1225 147.362 93.6114 149.147 91.171L150.373 92.0613C148.6 94.4855 146.853 96.9793 145.181 99.4736V99.4735ZM508.224 93.0779C506.465 90.645 504.632 88.2157 502.776 85.8577L503.97 84.9245C505.839 87.2988 507.684 89.7447 509.455 92.1942L508.224 93.0779ZM155.866 84.868L154.677 83.9282C156.562 81.5617 158.52 79.2029 160.499 76.9173L161.648 77.9051C159.683 80.1749 157.737 82.5175 155.866 84.8681V84.868ZM497.036 78.8644C495.082 76.5806 493.056 74.3079 491.014 72.1097L492.127 71.0828C494.183 73.2961 496.224 75.584 498.191 77.8833L497.036 78.8644ZM167.711 71.1832L166.603 70.1497C168.673 67.947 170.818 65.7555 172.978 63.6367L174.043 64.7138C171.897 66.8186 169.766 68.9954 167.711 71.1832ZM484.719 65.6053C482.587 63.4901 480.381 61.3894 478.162 59.3614L479.188 58.2473C481.422 60.2894 483.643 62.4045 485.79 64.534L484.719 65.6053ZM180.635 58.5084L179.615 57.3884C181.859 55.3611 184.176 53.3516 186.502 51.4158L187.475 52.5764C185.164 54.4988 182.863 56.4947 180.635 58.5084ZM471.355 53.3892C469.055 51.4531 466.684 49.5384 464.308 47.6983L465.239 46.5045C467.632 48.3572 470.019 50.2852 472.335 52.2346L471.355 53.3892ZM194.551 46.9279L193.627 45.729C196.028 43.8914 198.502 42.0775 200.979 40.3374L201.854 41.5733C199.393 43.3015 196.936 45.1032 194.551 46.9279V46.9279ZM457.032 42.2986C454.58 40.556 452.06 38.8406 449.54 37.2002L450.37 35.9344C452.907 37.5863 455.445 39.3131 457.913 41.0679L457.032 42.2986ZM209.369 36.5213L208.546 35.2507C211.09 33.6151 213.704 32.0094 216.315 30.4782L217.085 31.7813C214.492 33.3021 211.896 34.8967 209.369 36.5213ZM441.843 32.4121C439.258 30.8765 436.604 29.3727 433.955 27.9427L434.678 26.6131C437.345 28.053 440.018 29.5672 442.62 31.1135L441.843 32.4121ZM224.989 27.3606L224.273 26.0272C226.946 24.6039 229.683 23.2178 232.408 21.9074L233.068 23.2687C230.361 24.5702 227.643 25.9471 224.989 27.3605V27.3606ZM425.888 23.7999C423.176 22.4776 420.406 21.1967 417.654 19.9926L418.265 18.6084C421.035 19.8206 423.824 21.1104 426.554 22.4422L425.888 23.7999ZM241.307 19.5131L240.704 18.1252C243.482 16.9281 246.323 15.7716 249.15 14.6882L249.695 16.0998C246.887 17.1754 244.065 18.3238 241.307 19.5131ZM409.27 16.5268C406.465 15.4349 403.597 14.3859 400.746 13.4095L401.24 11.9795C404.11 12.9629 406.998 14.019 409.822 15.1186L409.27 16.5268ZM258.215 13.0348L257.729 11.6026C260.6 10.6362 263.527 9.71782 266.428 8.87287L266.854 10.3243C263.973 11.1633 261.066 12.0755 258.215 13.0348ZM392.1 10.6462C389.21 9.78832 386.265 8.97918 383.344 8.24165L383.716 6.77619C386.658 7.5189 389.624 8.3332 392.533 9.19697L392.1 10.6462ZM275.596 7.97145L275.231 6.50377C278.171 5.77769 281.162 5.10328 284.123 4.50012L284.427 5.98109C281.487 6.58057 278.516 7.25016 275.596 7.97145ZM374.493 6.20072C371.556 5.58648 368.558 5.02392 365.582 4.52818L365.832 3.03688C368.829 3.53595 371.848 4.10256 374.805 4.72121L374.493 6.20072ZM293.347 4.35284L293.104 2.86006C296.095 2.37724 299.137 1.95015 302.146 1.59062L302.327 3.09151C299.338 3.44883 296.317 3.87333 293.347 4.35284ZM356.608 3.22292C353.629 2.85157 350.595 2.53597 347.589 2.28569L347.716 0.778893C350.742 1.03101 353.797 1.34847 356.797 1.72277L356.608 3.22292ZM311.351 2.19857L311.231 0.691028C314.251 0.454405 317.317 0.276115 320.346 0.161311L320.404 1.67218C317.395 1.78626 314.349 1.96307 311.351 2.19858V2.19857ZM338.539 1.71574C335.534 1.58802 332.483 1.51935 329.472 1.51197L329.476 0C332.507 0.00738596 335.578 0.0764221 338.604 0.205249L338.539 1.71574Z" fill="#CCCCCC"/>
<path d="M524.895 120.038C524.196 118.701 523.484 117.371 522.759 116.051L524.09 115.325C524.821 116.655 525.538 117.993 526.241 119.34L524.895 120.038Z" fill="#CCCCCC"/>
<path d="M280.367 148.172H266.33V266.484C266.326 269.49 265.126 272.372 262.992 274.498C260.858 276.624 257.966 277.82 254.948 277.823H25.4189V288.029C25.4238 291.436 26.7844 294.702 29.2024 297.111C31.6204 299.521 34.8985 300.876 38.3181 300.881H280.367C283.787 300.876 287.065 299.521 289.483 297.111C291.901 294.702 293.261 291.436 293.266 288.029V161.024C293.261 157.617 291.901 154.351 289.483 151.942C287.065 149.533 283.787 148.177 280.367 148.172Z" fill="#F2F2F2"/>
<path d="M254.948 126.627H12.8992C9.47958 126.631 6.20143 127.987 3.78342 130.396C1.3654 132.805 0.00483749 136.071 0 139.478V266.484C0.00483949 269.891 1.36541 273.157 3.78343 275.566C6.20144 277.975 9.47958 279.33 12.8992 279.335H254.948C258.368 279.33 261.646 277.975 264.064 275.566C266.482 273.157 267.842 269.891 267.847 266.484V139.478C267.842 136.071 266.482 132.805 264.064 130.396C261.646 127.987 258.368 126.631 254.948 126.627ZM266.33 266.484C266.326 269.49 265.126 272.372 262.992 274.498C260.858 276.624 257.966 277.82 254.948 277.823H12.8992C9.8817 277.82 6.98887 276.624 4.8552 274.498C2.72153 272.372 1.52122 269.49 1.51755 266.484V139.478C1.52122 136.472 2.72153 133.59 4.8552 131.464C6.98887 129.338 9.8817 128.142 12.8992 128.138H254.948C257.966 128.142 260.858 129.338 262.992 131.464C265.126 133.59 266.326 136.472 266.33 139.478V266.484Z" fill="#3F3D56"/>
<path d="M236.693 220.369H151.71C150.1 220.369 148.556 219.731 147.418 218.597C146.28 217.463 145.64 215.925 145.64 214.321C145.64 212.717 146.28 211.178 147.418 210.044C148.556 208.91 150.1 208.273 151.71 208.273H236.693C238.303 208.273 239.847 208.91 240.985 210.044C242.124 211.178 242.763 212.717 242.763 214.321C242.763 215.925 242.124 217.463 240.985 218.597C239.847 219.731 238.303 220.369 236.693 220.369Z" fill="#CCCCCC"/>
<path d="M183.579 194.665H151.71C150.1 194.665 148.556 194.028 147.418 192.894C146.28 191.76 145.64 190.221 145.64 188.617C145.64 187.013 146.28 185.475 147.418 184.341C148.556 183.207 150.1 182.569 151.71 182.569H183.579C185.189 182.569 186.733 183.207 187.871 184.341C189.009 185.475 189.649 187.013 189.649 188.617C189.649 190.221 189.009 191.76 187.871 192.894C186.733 194.028 185.189 194.665 183.579 194.665Z" fill="#CCCCCC"/>
<path d="M113.437 250.608H36.0419C34.3319 250.606 32.6926 249.928 31.4834 248.724C30.2743 247.519 29.5942 245.886 29.5923 244.182V158.756C29.5942 157.052 30.2743 155.419 31.4834 154.214C32.6926 153.01 34.3319 152.332 36.0419 152.33H113.437C115.147 152.332 116.786 153.01 117.995 154.214C119.204 155.419 119.885 157.052 119.886 158.756V244.182C119.885 245.886 119.204 247.519 117.995 248.724C116.786 249.928 115.147 250.606 113.437 250.608Z" fill="#2260FF" fill-opacity="0.55"/>
<path d="M75.9106 232.814C74.2041 232.767 72.0802 232.707 70.4449 231.517C69.9577 231.148 69.5575 230.677 69.2721 230.138C68.9868 229.598 68.8233 229.003 68.7931 228.394C68.7636 227.962 68.8349 227.528 69.0014 227.127C69.168 226.726 69.4254 226.369 69.7533 226.084C70.2408 225.721 70.8116 225.486 71.4137 225.4C72.0158 225.313 72.63 225.379 73.2003 225.59L71.8071 215.446L72.8298 215.306L74.4677 227.231L73.6137 226.841C72.6235 226.389 71.2643 226.159 70.4197 226.869C70.2123 227.055 70.0508 227.286 69.9476 227.544C69.8444 227.803 69.8024 228.081 69.8248 228.358C69.8498 228.811 69.9725 229.254 70.1846 229.656C70.3967 230.058 70.6931 230.409 71.0538 230.687C72.3264 231.613 74.0194 231.733 75.9397 231.786L75.9106 232.814Z" fill="#3F3D56"/>
<path d="M66.7497 216.32H61.1899V217.349H66.7497V216.32Z" fill="#3F3D56"/>
<path d="M84.298 216.32H78.7383V217.349H84.298V216.32Z" fill="#3F3D56"/>
<path d="M51.5304 202.118C47.0533 201.61 43.5858 197.336 43.205 192.999C42.7519 187.84 45.7674 182.94 49.9045 180.045C54.2309 177.018 59.6212 175.754 64.8365 175.475C75.0105 174.971 85.0091 178.254 92.8879 184.687C96.7959 187.921 100.446 192.04 101.829 197.016C103.03 201.337 102.053 206.232 98.5645 209.259C97.7016 210 96.6938 210.556 95.6046 210.89C94.5155 211.224 93.3687 211.329 92.2366 211.2C89.53 210.92 87.0327 209.502 84.871 207.936C80.6661 204.89 77.214 200.646 72.0911 199.055C68.3347 197.887 63.4601 198.915 61.1646 202.299C60.6437 203.074 60.3062 203.956 60.1774 204.88C60.13 205.077 60.1595 205.285 60.2599 205.461C60.3603 205.637 60.5241 205.769 60.7182 205.829C60.9162 205.882 61.1271 205.855 61.3054 205.754C61.4837 205.654 61.6149 205.487 61.6706 205.29C62.2732 201.027 67.534 199.437 71.2257 200.41C76.6083 201.83 80.2216 206.615 84.6378 209.656C86.9238 211.354 89.6169 212.425 92.4483 212.762C94.9033 212.954 97.3397 212.208 99.2631 210.676C103.036 207.708 104.479 202.603 103.644 198.006C102.678 192.684 99.0827 188.122 95.1374 184.59C87.1393 177.506 76.7557 173.684 66.0559 173.886C60.5984 174.011 54.904 175.134 50.2024 178.008C45.6419 180.795 42.117 185.459 41.6563 190.88C41.2508 195.652 43.8203 200.643 48.2312 202.733C49.2712 203.224 50.3864 203.537 51.5304 203.661C52.5188 203.773 52.5108 202.23 51.5304 202.118Z" fill="#3F3D56"/>
<path d="M666.584 348.508H654.398V388.061C654.393 391.468 653.032 394.734 650.614 397.143C648.196 399.552 644.918 400.908 641.498 400.913H337.275V406.719C337.279 410.527 338.799 414.179 341.502 416.871C344.205 419.564 347.87 421.079 351.692 421.082H666.584C670.406 421.079 674.071 419.564 676.774 416.871C679.477 414.179 680.997 410.527 681 406.719V362.872C680.997 359.063 679.477 355.412 676.774 352.719C674.071 350.026 670.406 348.511 666.584 348.508Z" fill="#F2F2F2"/>
<path d="M641.498 329.85H326.607C322.784 329.854 319.119 331.368 316.416 334.061C313.713 336.754 312.193 340.405 312.19 344.214V388.061C312.193 391.869 313.713 395.521 316.416 398.214C319.119 400.907 322.784 402.421 326.607 402.425H641.498C645.321 402.421 648.985 400.907 651.688 398.214C654.391 395.521 655.911 391.869 655.915 388.061V344.214C655.911 340.405 654.391 336.754 651.688 334.061C648.985 331.368 645.321 329.854 641.498 329.85ZM654.397 388.061C654.392 391.468 653.032 394.734 650.614 397.143C648.196 399.552 644.918 400.908 641.498 400.913H326.607C323.187 400.908 319.909 399.552 317.491 397.143C315.073 394.734 313.712 391.468 313.707 388.061V344.214C313.712 340.807 315.073 337.541 317.491 335.132C319.909 332.723 323.187 331.367 326.607 331.362H641.498C644.918 331.367 648.196 332.723 650.614 335.132C653.032 337.541 654.392 340.807 654.397 344.214V388.061Z" fill="#3F3D56"/>
<path d="M381.87 341.948C377.067 341.948 372.373 343.367 368.38 346.025C364.387 348.683 361.275 352.461 359.437 356.882C357.599 361.302 357.119 366.166 358.055 370.859C358.992 375.552 361.305 379.862 364.701 383.246C368.096 386.629 372.423 388.933 377.133 389.866C381.843 390.8 386.725 390.321 391.161 388.49C395.598 386.659 399.39 383.558 402.058 379.58C404.726 375.601 406.15 370.924 406.15 366.14C406.143 359.726 403.583 353.577 399.031 349.042C394.479 344.506 388.307 341.955 381.87 341.948Z" fill="#2260FF" fill-opacity="0.55"/>
<path d="M604.447 386.551H430.688C429.078 386.551 427.534 385.914 426.396 384.78C425.257 383.646 424.618 382.107 424.618 380.503C424.618 378.899 425.257 377.361 426.396 376.227C427.534 375.093 429.078 374.455 430.688 374.455H604.447C606.057 374.455 607.601 375.093 608.74 376.227C609.878 377.361 610.517 378.899 610.517 380.503C610.517 382.107 609.878 383.646 608.74 384.78C607.601 385.914 606.057 386.551 604.447 386.551Z" fill="#CCCCCC"/>
<path d="M517.188 360.848H430.688C429.078 360.848 427.534 360.21 426.396 359.076C425.257 357.942 424.618 356.404 424.618 354.8C424.618 353.196 425.257 351.657 426.396 350.523C427.534 349.389 429.078 348.752 430.688 348.752H517.188C518.798 348.752 520.342 349.389 521.481 350.523C522.619 351.657 523.258 353.196 523.258 354.8C523.258 356.404 522.619 357.942 521.481 359.076C520.342 360.21 518.798 360.848 517.188 360.848Z" fill="#CCCCCC"/>
<path d="M380.223 376.717C379.596 376.718 378.985 376.516 378.483 376.141L378.452 376.118L371.898 371.123C371.285 370.654 370.884 369.963 370.782 369.2C370.681 368.437 370.888 367.665 371.358 367.054C371.828 366.443 372.523 366.043 373.289 365.943C374.054 365.842 374.829 366.048 375.442 366.517L379.687 369.76L389.719 356.721C389.952 356.418 390.242 356.165 390.573 355.974C390.904 355.783 391.27 355.66 391.649 355.61C392.028 355.56 392.413 355.585 392.782 355.683C393.151 355.782 393.498 355.952 393.801 356.183L393.802 356.184L393.74 356.27L393.804 356.184C394.416 356.653 394.816 357.344 394.917 358.107C395.018 358.87 394.812 359.641 394.342 360.252L382.543 375.582C382.27 375.935 381.919 376.221 381.517 376.418C381.115 376.614 380.673 376.715 380.226 376.714L380.223 376.717Z" fill="white"/>
<path d="M621.816 133.052H620.207C620.237 133.378 620.253 133.71 620.253 134.05V177.897C620.248 181.304 618.887 184.57 616.469 186.98C614.051 189.389 610.773 190.744 607.353 190.749H456.403V191.263C456.403 191.596 456.418 191.928 456.441 192.261C456.695 195.888 458.32 199.285 460.989 201.765C463.657 204.245 467.17 205.625 470.82 205.627H621.816C625.638 205.623 629.303 204.109 632.006 201.416C634.709 198.723 636.229 195.072 636.232 191.263V147.416C636.229 143.608 634.709 139.956 632.006 137.263C629.303 134.57 625.638 133.056 621.816 133.052Z" fill="#F2F2F2"/>
<path d="M621.732 133.052C621.478 129.425 619.853 126.029 617.184 123.549C614.516 121.068 611.003 119.688 607.353 119.687H456.357C452.535 119.69 448.87 121.205 446.167 123.897C443.464 126.59 441.944 130.242 441.94 134.05V177.897C441.944 181.706 443.464 185.357 446.167 188.05C448.87 190.743 452.535 192.258 456.357 192.261H607.353C611.176 192.258 614.841 190.743 617.544 188.05C620.246 185.357 621.767 181.706 621.77 177.897V134.05C621.77 133.718 621.755 133.385 621.732 133.052ZM620.252 177.897C620.248 181.304 618.887 184.57 616.469 186.98C614.051 189.389 610.773 190.744 607.353 190.749H456.357C452.938 190.744 449.659 189.389 447.241 186.98C444.823 184.57 443.463 181.304 443.458 177.897V134.05C443.463 130.643 444.823 127.377 447.241 124.968C449.659 122.559 452.938 121.203 456.357 121.199H607.353C610.599 121.203 613.724 122.425 616.106 124.622C618.488 126.819 619.952 129.829 620.207 133.052C620.237 133.378 620.252 133.71 620.252 134.05V177.897Z" fill="#3F3D56"/>
<path d="M569.036 174.876H494.676C493.066 174.876 491.522 174.238 490.384 173.104C489.245 171.97 488.606 170.432 488.606 168.828C488.606 167.224 489.245 165.685 490.384 164.551C491.522 163.417 493.066 162.78 494.676 162.78H569.036C570.646 162.78 572.19 163.417 573.328 164.551C574.467 165.685 575.106 167.224 575.106 168.828C575.106 170.432 574.467 171.97 573.328 173.104C572.19 174.238 570.646 174.876 569.036 174.876Z" fill="#CCCCCC"/>
<path d="M546.273 149.172H494.676C493.066 149.172 491.522 148.535 490.384 147.401C489.245 146.267 488.606 144.728 488.606 143.124C488.606 141.52 489.245 139.982 490.384 138.848C491.522 137.714 493.066 137.076 494.676 137.076H546.273C547.883 137.076 549.427 137.714 550.565 138.848C551.703 139.982 552.343 141.52 552.343 143.124C552.343 144.728 551.703 146.267 550.565 147.401C549.427 148.535 547.883 149.172 546.273 149.172Z" fill="#CCCCCC"/>
</g>
<defs>
<clipPath id="clip0">
<rect width="681" height="443" fill="white"/>
</clipPath>
</defs>
</svg>
