<svg width="1330" height="370" viewBox="0 0 1580 338" fill="none" xmlns="http://www.w3.org/2000/svg">
<path d="M983.547 227.195C840.547 265.695 667.547 13.695 616.047 140.695C564.547 267.695 552.547 181.195 499.547 156.695C446.547 132.195 432.382 191.355 386.547 206.195C310.306 230.88 252.547 267.695 183.547 236.195C114.547 204.695 87.1622 242.666 46.0467 206.195C-5.00375 160.911 -9.47105 99.2861 12.5467 34.695C29.3784 -14.6822 56.8988 -37.2345 100.547 -65.805C149.11 -97.5927 185.715 -111.229 243.547 -106.305C306.199 -100.97 326.409 -50.6701 386.547 -32.305C527.815 10.8361 619.25 -126.677 761.047 -85.305C797.527 -74.6611 814.612 -59.1052 851.047 -48.305C971.414 -12.6249 1048.97 -41.0375 1172.05 -65.805C1244.62 -80.4093 1280.32 -112.138 1354.05 -118.805C1474.66 -129.711 1602.58 -156.975 1656.05 -48.305C1686.56 13.7182 1681.09 64.2691 1656.05 128.695C1619.29 223.26 1539.37 240.546 1447.55 283.695C1384.78 313.19 1347.24 331.965 1278.05 336.695C1155.63 345.062 1126.55 188.695 983.547 227.195Z" fill="#2260FF" fill-opacity="0.55"/>
</svg>
