<svg width="70" height="70" viewBox="0 0 139 119" fill="none" xmlns="http://www.w3.org/2000/svg">
<circle cx="69.5" cy="59.5" r="59.5" fill="black"/>
<path d="M67.1343 64.408C67.2303 64.376 67.3903 64.36 67.6143 64.36C68.0943 64.36 68.4623 64.52 68.7183 64.84C68.9743 65.16 69.1023 65.592 69.1023 66.136C69.1023 67.128 68.9103 67.912 68.5263 68.488C68.1423 69.032 67.5663 69.432 66.7983 69.688C65.3263 70.168 63.7583 70.408 62.0943 70.408C60.6863 70.408 59.3583 70.216 58.1103 69.832C57.1823 71.336 56.1583 72.888 55.0383 74.488C53.7583 76.312 52.6543 77.56 51.7263 78.232C50.7983 78.904 49.7423 79.24 48.5583 79.24C47.2463 79.24 46.2063 78.728 45.4383 77.704C44.7023 76.68 44.2383 75.064 44.0463 72.856C43.6623 68.376 43.4703 64.456 43.4703 61.096V59.416C43.5023 58.36 43.7903 57.624 44.3343 57.208C44.8783 56.792 45.6943 56.584 46.7823 56.584C47.6143 56.584 48.2223 56.776 48.6063 57.16C49.0223 57.512 49.2303 58.12 49.2303 58.984C49.2303 62.664 49.4543 67.448 49.9023 73.336C51.8223 70.488 53.2623 68.216 54.2223 66.52C53.7423 65.592 53.5023 64.488 53.5023 63.208C53.5023 62.12 53.7423 61.064 54.2223 60.04C54.7023 59.016 55.3583 58.184 56.1903 57.544C57.0223 56.904 57.9663 56.584 59.0223 56.584C59.9503 56.584 60.7023 56.92 61.2783 57.592C61.8543 58.232 62.1423 59.176 62.1423 60.424C62.1423 61.864 61.7583 63.512 60.9903 65.368C62.2063 65.304 63.8223 65.064 65.8383 64.648L67.1343 64.408ZM74.0756 61.192C74.0116 62.792 73.9796 64.04 73.9796 64.936C73.9796 67.24 74.0916 69.048 74.3156 70.36C74.5716 71.64 74.9716 72.568 75.5156 73.144C76.0916 73.688 76.8756 73.96 77.8676 73.96C78.3796 73.96 78.9876 73.8 79.6916 73.48C80.3956 73.16 81.0356 72.744 81.6116 72.232C81.9636 71.912 82.3156 71.752 82.6676 71.752C83.0516 71.752 83.3556 71.976 83.5796 72.424C83.8356 72.84 83.9636 73.352 83.9636 73.96C83.9636 74.568 83.8356 75.16 83.5796 75.736C83.3556 76.312 83.0036 76.792 82.5236 77.176C80.8596 78.552 78.9716 79.24 76.8596 79.24C73.8196 79.24 71.5956 77.976 70.1876 75.448C68.7796 72.888 68.0756 69.56 68.0756 65.464C68.0756 64.056 68.1236 62.632 68.2196 61.192H66.3476C65.3876 61.192 64.7316 61.016 64.3796 60.664C64.0596 60.312 63.8996 59.752 63.8996 58.984C63.8996 57.192 64.6196 56.296 66.0596 56.296H68.7956C69.3396 52.776 70.1716 49.56 71.2916 46.648C72.4116 43.736 73.7556 41.416 75.3236 39.688C76.9236 37.96 78.6356 37.096 80.4596 37.096C81.8036 37.096 82.8596 37.688 83.6276 38.872C84.3956 40.056 84.7796 41.544 84.7796 43.336C84.7796 48.296 82.6996 52.616 78.5396 56.296H83.9156C84.4276 56.296 84.7956 56.408 85.0196 56.632C85.2436 56.856 85.3556 57.272 85.3556 57.88C85.3556 60.088 83.5476 61.192 79.9316 61.192H74.0756ZM79.1636 41.704C78.6836 41.704 78.1396 42.312 77.5316 43.528C76.9556 44.712 76.3956 46.376 75.8516 48.52C75.3396 50.632 74.9076 52.984 74.5556 55.576C76.4436 53.944 77.8516 52.12 78.7796 50.104C79.7396 48.056 80.2196 46.2 80.2196 44.536C80.2196 42.648 79.8676 41.704 79.1636 41.704ZM91.2176 79.24C89.8096 79.24 88.7376 78.856 88.0016 78.088C87.2976 77.32 86.9456 76.312 86.9456 75.064C86.9456 73.624 87.3456 72.472 88.1456 71.608C88.9776 70.744 90.1296 70.312 91.6016 70.312C93.0096 70.312 94.0656 70.664 94.7696 71.368C95.5056 72.04 95.8736 73.048 95.8736 74.392C95.8736 75.864 95.4576 77.048 94.6256 77.944C93.7936 78.808 92.6576 79.24 91.2176 79.24Z" fill="white"/>
</svg>
